<svg t="1648796521299" class="icon" viewBox="0 0 1024 1024" version="1.1" xmlns="http://www.w3.org/2000/svg" p-id="10172" width="200" height="200"><path d="M173.17138 722.424789H39.488901A31.469972 31.469972 0 0 0 7.211268 754.615887v229.967324A31.484394 31.484394 0 0 0 39.474479 1016.788732h135.990084a31.469972 31.469972 0 0 0 32.263212-32.191098V754.615887a34.98907 34.98907 0 0 0-34.614085-32.191098z m271.980169-420.849578h-135.990084a31.469972 31.469972 0 0 0-32.263211 32.191099v650.816901a31.484394 31.484394 0 0 0 32.263211 32.205521h135.990084a31.469972 31.469972 0 0 0 32.234366-32.191098V333.76631a34.614085 34.614085 0 0 0-32.263211-32.191099z m269.701409 216.179381h-136.004507a31.469972 31.469972 0 0 0-32.234366 32.191098v434.651944a31.484394 31.484394 0 0 0 32.234366 32.191098h135.990084a31.484394 31.484394 0 0 0 32.277634-32.191098v-437.002817a31.022873 31.022873 0 0 0-32.277634-29.897916z m269.701408-510.557747h-136.033352a31.469972 31.469972 0 0 0-32.263211 32.191099v945.180845a31.469972 31.469972 0 0 0 32.263211 32.219943h135.990085a31.484394 31.484394 0 0 0 32.277633-32.191098V39.402366A31.469972 31.469972 0 0 0 984.511099 7.211268z m0 0" fill="#ffffff" opacity=".4" p-id="10173"></path></svg>
