<?xml version="1.0" standalone="no"?><!DOCTYPE svg PUBLIC "-//W3C//DTD SVG 1.1//EN" "http://www.w3.org/Graphics/SVG/1.1/DTD/svg11.dtd"><svg t="1610622219298" class="icon" viewBox="0 0 1088 1024" version="1.1" xmlns="http://www.w3.org/2000/svg" p-id="9345" xmlns:xlink="http://www.w3.org/1999/xlink" width="212.5" height="200"><defs><style type="text/css"></style></defs><path d="M567.9872 85.20192c25.04704 0 49.19808 2.97472 71.92064 8.48896V77.0048c0-34.75456-32.19968-62.92992-71.92576-62.92992-39.71584 0-71.91552 28.17024-71.91552 62.92992v16.68608a305.09568 305.09568 0 0 1 71.92064-8.48896zM439.28576 927.55968v15.6928c0 44.94848 57.62048 71.14752 128.69632 71.14752 71.08608 0 128.71168-26.19904 128.71168-71.14752v-15.6928H439.28576zM567.99232 171.9296c122.3168 0 221.824 99.51232 221.824 221.82912v262.41536c-0.0256 0.68096-0.05632 1.36704-0.06656 2.06336a66.7648 66.7648 0 0 0 19.12832 47.92832c12.54912 12.75904 91.29472 71.14752 91.29472 71.14752 5.4272 2.6368 15.46752 16.65536 15.46752 28.60032s-15.16544 31.08352-20.58752 33.72032H240.92672c-5.4272-2.6368-20.59264-21.77536-20.59264-33.72032s10.05056-25.96352 15.47264-28.60032c0 0 78.63296-58.34752 91.17696-71.05024a66.73408 66.73408 0 0 0 19.17952-49.96608V393.75872c-0.00512-122.3168 99.5072-221.82912 221.82912-221.82912m0-66.73408c-159.37024 0-288.5632 129.19296-288.5632 288.5632v264.05376c0 0.54784 0.06144 1.03424 0.06656 1.57696 0 0-125.89568 83.01568-125.89568 146.5344 0 44.7488 41.40032 100.44928 86.15424 100.44928h656.47104c44.75392 0 86.15424-55.70048 86.15424-100.44928 0-60.95872-125.90592-146.5344-125.90592-146.5344 0.01024-0.5376 0.0768-1.03424 0.0768-1.57696V393.75872c0-159.37024-129.19296-288.5632-288.55808-288.5632z" fill="#4D4D4D" p-id="9346"></path></svg>